<mxfile host="app.diagrams.net" modified="2023-09-20T01:15:37.091Z" agent="Mozilla/5.0 (Windows NT 10.0; Win64; x64) AppleWebKit/537.36 (KHTML, like Gecko) Chrome/116.0.0.0 Safari/537.36" etag="IzWc_N_xmITiVWxHO03I" version="21.7.5" type="device">
  <diagram name="페이지-1" id="t2FTUH18fHwHQrfIcSvI">
    <mxGraphModel dx="1674" dy="1951" grid="1" gridSize="10" guides="1" tooltips="1" connect="1" arrows="1" fold="1" page="1" pageScale="1" pageWidth="827" pageHeight="1169" math="0" shadow="0">
      <root>
        <mxCell id="0" />
        <mxCell id="1" parent="0" />
        <mxCell id="4xMV8PPIrcROypzMh4nJ-6" style="edgeStyle=orthogonalEdgeStyle;rounded=0;orthogonalLoop=1;jettySize=auto;html=1;entryX=0;entryY=0.5;entryDx=0;entryDy=0;" edge="1" parent="1" source="4xMV8PPIrcROypzMh4nJ-2" target="4xMV8PPIrcROypzMh4nJ-3">
          <mxGeometry relative="1" as="geometry" />
        </mxCell>
        <mxCell id="4xMV8PPIrcROypzMh4nJ-7" style="edgeStyle=orthogonalEdgeStyle;rounded=0;orthogonalLoop=1;jettySize=auto;html=1;entryX=0.5;entryY=1;entryDx=0;entryDy=0;" edge="1" parent="1" source="4xMV8PPIrcROypzMh4nJ-2" target="4xMV8PPIrcROypzMh4nJ-4">
          <mxGeometry relative="1" as="geometry" />
        </mxCell>
        <mxCell id="4xMV8PPIrcROypzMh4nJ-2" value="&lt;font style=&quot;font-size: 18px;&quot;&gt;Apply&lt;br&gt;Controller&lt;br&gt;.java&lt;br&gt;&lt;/font&gt;" style="whiteSpace=wrap;html=1;aspect=fixed;fillColor=#8FFBFF;" vertex="1" parent="1">
          <mxGeometry x="370" y="290" width="100" height="100" as="geometry" />
        </mxCell>
        <mxCell id="4xMV8PPIrcROypzMh4nJ-21" style="edgeStyle=orthogonalEdgeStyle;rounded=0;orthogonalLoop=1;jettySize=auto;html=1;entryX=0;entryY=0.5;entryDx=0;entryDy=0;" edge="1" parent="1" source="4xMV8PPIrcROypzMh4nJ-3" target="4xMV8PPIrcROypzMh4nJ-20">
          <mxGeometry relative="1" as="geometry" />
        </mxCell>
        <mxCell id="4xMV8PPIrcROypzMh4nJ-3" value="&lt;span style=&quot;font-size: 18px;&quot;&gt;insert.do&lt;br&gt;&lt;/span&gt;" style="text;html=1;strokeColor=none;fillColor=#FFFF78;align=center;verticalAlign=middle;whiteSpace=wrap;rounded=0;" vertex="1" parent="1">
          <mxGeometry x="570" y="290" width="120" height="100" as="geometry" />
        </mxCell>
        <mxCell id="4xMV8PPIrcROypzMh4nJ-18" style="edgeStyle=orthogonalEdgeStyle;rounded=0;orthogonalLoop=1;jettySize=auto;html=1;entryX=0.5;entryY=1.009;entryDx=0;entryDy=0;entryPerimeter=0;" edge="1" parent="1" source="4xMV8PPIrcROypzMh4nJ-4">
          <mxGeometry relative="1" as="geometry">
            <mxPoint x="420" y="40.99000000000001" as="targetPoint" />
          </mxGeometry>
        </mxCell>
        <mxCell id="4xMV8PPIrcROypzMh4nJ-4" value="&lt;span style=&quot;font-size: 18px;&quot;&gt;delete.do&lt;br&gt;&lt;/span&gt;" style="text;html=1;strokeColor=none;fillColor=#FFFF78;align=center;verticalAlign=middle;whiteSpace=wrap;rounded=0;" vertex="1" parent="1">
          <mxGeometry x="360" y="110" width="120" height="100" as="geometry" />
        </mxCell>
        <mxCell id="4xMV8PPIrcROypzMh4nJ-9" value="댓글 입력요청" style="text;html=1;strokeColor=none;fillColor=none;align=center;verticalAlign=middle;whiteSpace=wrap;rounded=0;" vertex="1" parent="1">
          <mxGeometry x="490" y="310" width="60" height="30" as="geometry" />
        </mxCell>
        <mxCell id="4xMV8PPIrcROypzMh4nJ-10" value="지원 취소 요청" style="text;html=1;strokeColor=none;fillColor=none;align=center;verticalAlign=middle;whiteSpace=wrap;rounded=0;" vertex="1" parent="1">
          <mxGeometry x="420" y="240" width="60" height="30" as="geometry" />
        </mxCell>
        <mxCell id="4xMV8PPIrcROypzMh4nJ-11" value="&lt;span style=&quot;font-size: 18px;&quot;&gt;apply&lt;/span&gt;" style="shape=cube;whiteSpace=wrap;html=1;boundedLbl=1;backgroundOutline=1;darkOpacity=0.05;darkOpacity2=0.1;" vertex="1" parent="1">
          <mxGeometry x="1050" y="120" width="120" height="110" as="geometry" />
        </mxCell>
        <mxCell id="4xMV8PPIrcROypzMh4nJ-13" value="지원신청서 &lt;br&gt;작성페이지로 &lt;br&gt;이동" style="text;html=1;strokeColor=none;fillColor=none;align=center;verticalAlign=middle;whiteSpace=wrap;rounded=0;" vertex="1" parent="1">
          <mxGeometry x="690" y="300" width="80" height="30" as="geometry" />
        </mxCell>
        <mxCell id="4xMV8PPIrcROypzMh4nJ-19" value="DB삭제 요청" style="text;html=1;strokeColor=none;fillColor=none;align=center;verticalAlign=middle;whiteSpace=wrap;rounded=0;" vertex="1" parent="1">
          <mxGeometry x="420" y="60" width="70" height="30" as="geometry" />
        </mxCell>
        <mxCell id="4xMV8PPIrcROypzMh4nJ-25" style="edgeStyle=orthogonalEdgeStyle;rounded=0;orthogonalLoop=1;jettySize=auto;html=1;entryX=0;entryY=0.5;entryDx=0;entryDy=0;" edge="1" parent="1" source="4xMV8PPIrcROypzMh4nJ-20" target="4xMV8PPIrcROypzMh4nJ-24">
          <mxGeometry relative="1" as="geometry" />
        </mxCell>
        <mxCell id="4xMV8PPIrcROypzMh4nJ-20" value="&lt;span style=&quot;font-size: 19px;&quot;&gt;appForm.jsp&lt;/span&gt;" style="rounded=0;whiteSpace=wrap;html=1;" vertex="1" parent="1">
          <mxGeometry x="780" y="310" width="160" height="60" as="geometry" />
        </mxCell>
        <mxCell id="4xMV8PPIrcROypzMh4nJ-29" style="edgeStyle=orthogonalEdgeStyle;rounded=0;orthogonalLoop=1;jettySize=auto;html=1;" edge="1" parent="1" source="4xMV8PPIrcROypzMh4nJ-24" target="4xMV8PPIrcROypzMh4nJ-11">
          <mxGeometry relative="1" as="geometry" />
        </mxCell>
        <mxCell id="4xMV8PPIrcROypzMh4nJ-24" value="&lt;span style=&quot;font-size: 18px;&quot;&gt;insert.do&lt;br&gt;&lt;/span&gt;" style="text;html=1;strokeColor=none;fillColor=#FFFF78;align=center;verticalAlign=middle;whiteSpace=wrap;rounded=0;" vertex="1" parent="1">
          <mxGeometry x="1050" y="290" width="120" height="100" as="geometry" />
        </mxCell>
        <mxCell id="4xMV8PPIrcROypzMh4nJ-26" value="입력한 데이터 전달" style="text;html=1;strokeColor=none;fillColor=none;align=center;verticalAlign=middle;whiteSpace=wrap;rounded=0;" vertex="1" parent="1">
          <mxGeometry x="950" y="290" width="80" height="30" as="geometry" />
        </mxCell>
        <mxCell id="4xMV8PPIrcROypzMh4nJ-27" style="edgeStyle=orthogonalEdgeStyle;rounded=0;orthogonalLoop=1;jettySize=auto;html=1;entryX=0;entryY=0.5;entryDx=0;entryDy=0;" edge="1" parent="1">
          <mxGeometry relative="1" as="geometry">
            <mxPoint x="1200" y="339" as="sourcePoint" />
            <mxPoint x="1310" y="339" as="targetPoint" />
            <Array as="points">
              <mxPoint x="1170" y="339" />
              <mxPoint x="1170" y="339" />
            </Array>
          </mxGeometry>
        </mxCell>
        <mxCell id="4xMV8PPIrcROypzMh4nJ-28" value="&lt;span style=&quot;font-size: 19px;&quot;&gt;appSuc.jsp&lt;/span&gt;" style="rounded=0;whiteSpace=wrap;html=1;" vertex="1" parent="1">
          <mxGeometry x="1310" y="310" width="160" height="60" as="geometry" />
        </mxCell>
        <mxCell id="4xMV8PPIrcROypzMh4nJ-30" value="&lt;span style=&quot;font-size: 18px;&quot;&gt;apply&lt;/span&gt;" style="shape=cube;whiteSpace=wrap;html=1;boundedLbl=1;backgroundOutline=1;darkOpacity=0.05;darkOpacity2=0.1;" vertex="1" parent="1">
          <mxGeometry x="360" y="-70" width="120" height="110" as="geometry" />
        </mxCell>
      </root>
    </mxGraphModel>
  </diagram>
</mxfile>
